<?xml version="1.0" encoding="UTF-8" standalone="no"?>
<!DOCTYPE svg PUBLIC "-//W3C//DTD SVG 1.1//EN"
 "http://www.w3.org/Graphics/SVG/1.1/DTD/svg11.dtd">
<!-- Generated by graphviz version 2.47.0 (20210316.0004)
 -->
<!-- Title: dependencies Pages: 1 -->
<svg width="504pt" height="211pt"
 viewBox="0.00 0.00 504.00 211.00" xmlns="http://www.w3.org/2000/svg" xmlns:xlink="http://www.w3.org/1999/xlink">
<g id="graph0" class="graph" transform="scale(1 1) rotate(0) translate(4 207)">
<title>dependencies</title>
<polygon fill="white" stroke="transparent" points="-4,4 -4,-207 500,-207 500,4 -4,4"/>
<text text-anchor="start" x="227.01" y="-42.4" font-family="Times-12" font-weight="bold" font-size="14.00">Legend</text>
<polygon fill="#ffffb3" stroke="transparent" points="14,-10 14,-30 34,-30 34,-10 14,-10"/>
<text text-anchor="start" x="37.63" y="-15.4" font-family="Times-12" font-size="14.00"> &#160;Declarations</text>
<polygon fill="#8dd3c7" stroke="transparent" points="127,-10 127,-30 147,-30 147,-10 127,-10"/>
<text text-anchor="start" x="150.73" y="-15.4" font-family="Times-12" font-size="14.00"> &#160;Module</text>
<polygon fill="#80b1d3" stroke="transparent" points="213,-10 213,-30 233,-30 233,-10 213,-10"/>
<text text-anchor="start" x="236.78" y="-15.4" font-family="Times-12" font-size="14.00"> &#160;Bootstrap</text>
<polygon fill="#fdb462" stroke="transparent" points="310,-10 310,-30 330,-30 330,-10 310,-10"/>
<text text-anchor="start" x="333.67" y="-15.4" font-family="Times-12" font-size="14.00"> &#160;Providers</text>
<polygon fill="#fb8072" stroke="transparent" points="406,-10 406,-30 426,-30 426,-10 406,-10"/>
<text text-anchor="start" x="429.73" y="-15.4" font-family="Times-12" font-size="14.00"> &#160;Exports</text>
<g id="clust1" class="cluster">
<title>cluster_SharepointModule</title>
<polygon fill="none" stroke="black" stroke-dasharray="1,5" points="88,-70 88,-195 408,-195 408,-70 88,-70"/>
</g>
<g id="clust6" class="cluster">
<title>cluster_SharepointModule_providers</title>
<polygon fill="none" stroke="black" points="220,-78 220,-130 400,-130 400,-78 220,-78"/>
</g>
<g id="clust3" class="cluster">
<title>cluster_SharepointModule_imports</title>
<polygon fill="none" stroke="black" points="96,-78 96,-130 212,-130 212,-78 96,-78"/>
</g>
<!-- UploadModule -->
<g id="node1" class="node">
<title>UploadModule</title>
<polygon fill="#8dd3c7" stroke="black" points="204.26,-122 201.26,-126 180.26,-126 177.26,-122 103.74,-122 103.74,-86 204.26,-86 204.26,-122"/>
<text text-anchor="middle" x="154" y="-99.8" font-family="Times,serif" font-size="14.00">UploadModule</text>
</g>
<!-- SharepointModule -->
<g id="node2" class="node">
<title>SharepointModule</title>
<polygon fill="#8dd3c7" stroke="black" points="293.2,-187 290.2,-191 269.2,-191 266.2,-187 172.8,-187 172.8,-151 293.2,-151 293.2,-187"/>
<text text-anchor="middle" x="233" y="-164.8" font-family="Times,serif" font-size="14.00">SharepointModule</text>
</g>
<!-- UploadModule&#45;&gt;SharepointModule -->
<g id="edge1" class="edge">
<title>UploadModule&#45;&gt;SharepointModule</title>
<path fill="none" stroke="black" d="M188.64,-122.11C188.64,-122.11 188.64,-140.99 188.64,-140.99"/>
<polygon fill="black" stroke="black" points="185.14,-140.99 188.64,-150.99 192.14,-140.99 185.14,-140.99"/>
</g>
<!-- SharepointService -->
<g id="node3" class="node">
<title>SharepointService</title>
<ellipse fill="#fdb462" stroke="black" cx="310" cy="-104" rx="81.66" ry="18"/>
<text text-anchor="middle" x="310" y="-99.8" font-family="Times,serif" font-size="14.00">SharepointService</text>
</g>
<!-- SharepointService&#45;&gt;SharepointModule -->
<g id="edge2" class="edge">
<title>SharepointService&#45;&gt;SharepointModule</title>
<path fill="none" stroke="black" d="M260.64,-118.43C260.64,-118.43 260.64,-140.89 260.64,-140.89"/>
<polygon fill="black" stroke="black" points="257.14,-140.89 260.64,-150.89 264.14,-140.89 257.14,-140.89"/>
</g>
</g>
</svg>
