<?xml version="1.0" encoding="UTF-8" standalone="no"?>
<!DOCTYPE svg PUBLIC "-//W3C//DTD SVG 1.1//EN"
 "http://www.w3.org/Graphics/SVG/1.1/DTD/svg11.dtd">
<!-- Generated by graphviz version 2.47.0 (20210316.0004)
 -->
<!-- Title: dependencies Pages: 1 -->
<svg width="504pt" height="284pt"
 viewBox="0.00 0.00 504.00 284.00" xmlns="http://www.w3.org/2000/svg" xmlns:xlink="http://www.w3.org/1999/xlink">
<g id="graph0" class="graph" transform="scale(1 1) rotate(0) translate(4 280)">
<title>dependencies</title>
<polygon fill="white" stroke="transparent" points="-4,4 -4,-280 500,-280 500,4 -4,4"/>
<text text-anchor="start" x="227.01" y="-42.4" font-family="Times-12" font-weight="bold" font-size="14.00">Legend</text>
<polygon fill="#ffffb3" stroke="transparent" points="14,-10 14,-30 34,-30 34,-10 14,-10"/>
<text text-anchor="start" x="37.63" y="-15.4" font-family="Times-12" font-size="14.00"> &#160;Declarations</text>
<polygon fill="#8dd3c7" stroke="transparent" points="127,-10 127,-30 147,-30 147,-10 127,-10"/>
<text text-anchor="start" x="150.73" y="-15.4" font-family="Times-12" font-size="14.00"> &#160;Module</text>
<polygon fill="#80b1d3" stroke="transparent" points="213,-10 213,-30 233,-30 233,-10 213,-10"/>
<text text-anchor="start" x="236.78" y="-15.4" font-family="Times-12" font-size="14.00"> &#160;Bootstrap</text>
<polygon fill="#fdb462" stroke="transparent" points="310,-10 310,-30 330,-30 330,-10 310,-10"/>
<text text-anchor="start" x="333.67" y="-15.4" font-family="Times-12" font-size="14.00"> &#160;Providers</text>
<polygon fill="#fb8072" stroke="transparent" points="406,-10 406,-30 426,-30 426,-10 406,-10"/>
<text text-anchor="start" x="429.73" y="-15.4" font-family="Times-12" font-size="14.00"> &#160;Exports</text>
<g id="clust1" class="cluster">
<title>cluster_UploadModule</title>
<polygon fill="none" stroke="black" stroke-dasharray="1,5" points="95,-70 95,-268 401,-268 401,-70 95,-70"/>
</g>
<g id="clust3" class="cluster">
<title>cluster_UploadModule_imports</title>
<polygon fill="none" stroke="black" points="263,-78 263,-130 393,-130 393,-78 263,-78"/>
</g>
<g id="clust4" class="cluster">
<title>cluster_UploadModule_exports</title>
<polygon fill="none" stroke="black" points="194,-208 194,-260 312,-260 312,-208 194,-208"/>
</g>
<g id="clust6" class="cluster">
<title>cluster_UploadModule_providers</title>
<polygon fill="none" stroke="black" points="103,-78 103,-130 255,-130 255,-78 103,-78"/>
</g>
<!-- TelegramModule -->
<g id="node1" class="node">
<title>TelegramModule</title>
<polygon fill="#8dd3c7" stroke="black" points="384.69,-122 381.69,-126 360.69,-126 357.69,-122 271.31,-122 271.31,-86 384.69,-86 384.69,-122"/>
<text text-anchor="middle" x="328" y="-99.8" font-family="Times,serif" font-size="14.00">TelegramModule</text>
</g>
<!-- UploadModule -->
<g id="node2" class="node">
<title>UploadModule</title>
<polygon fill="#8dd3c7" stroke="black" points="303.26,-187 300.26,-191 279.26,-191 276.26,-187 202.74,-187 202.74,-151 303.26,-151 303.26,-187"/>
<text text-anchor="middle" x="253" y="-164.8" font-family="Times,serif" font-size="14.00">UploadModule</text>
</g>
<!-- TelegramModule&#45;&gt;UploadModule -->
<g id="edge1" class="edge">
<title>TelegramModule&#45;&gt;UploadModule</title>
<path fill="none" stroke="black" d="M287.39,-122.11C287.39,-122.11 287.39,-140.99 287.39,-140.99"/>
<polygon fill="black" stroke="black" points="283.89,-140.99 287.39,-150.99 290.89,-140.99 283.89,-140.99"/>
</g>
<!-- UploadService  -->
<g id="node3" class="node">
<title>UploadService </title>
<polygon fill="#fb8072" stroke="black" points="304.19,-252 201.81,-252 201.81,-216 304.19,-216 304.19,-252"/>
<text text-anchor="middle" x="253" y="-229.8" font-family="Times,serif" font-size="14.00">UploadService </text>
</g>
<!-- UploadModule&#45;&gt;UploadService  -->
<g id="edge2" class="edge">
<title>UploadModule&#45;&gt;UploadService </title>
<path fill="none" stroke="black" stroke-dasharray="5,2" d="M253,-187.11C253,-187.11 253,-205.99 253,-205.99"/>
<polygon fill="black" stroke="black" points="249.5,-205.99 253,-215.99 256.5,-205.99 249.5,-205.99"/>
</g>
<!-- UploadService -->
<g id="node4" class="node">
<title>UploadService</title>
<ellipse fill="#fdb462" stroke="black" cx="179" cy="-104" rx="68.34" ry="18"/>
<text text-anchor="middle" x="179" y="-99.8" font-family="Times,serif" font-size="14.00">UploadService</text>
</g>
<!-- UploadService&#45;&gt;UploadModule -->
<g id="edge3" class="edge">
<title>UploadService&#45;&gt;UploadModule</title>
<path fill="none" stroke="black" d="M225.02,-117.47C225.02,-117.47 225.02,-140.86 225.02,-140.86"/>
<polygon fill="black" stroke="black" points="221.52,-140.86 225.02,-150.86 228.52,-140.86 221.52,-140.86"/>
</g>
</g>
</svg>
