<?xml version="1.0" encoding="UTF-8" standalone="no"?>
<!DOCTYPE svg PUBLIC "-//W3C//DTD SVG 1.1//EN"
 "http://www.w3.org/Graphics/SVG/1.1/DTD/svg11.dtd">
<!-- Generated by graphviz version 2.47.0 (20210316.0004)
 -->
<!-- Title: dependencies Pages: 1 -->
<svg width="840pt" height="428pt"
 viewBox="0.00 0.00 840.00 428.00" xmlns="http://www.w3.org/2000/svg" xmlns:xlink="http://www.w3.org/1999/xlink">
<g id="graph0" class="graph" transform="scale(1 1) rotate(0) translate(4 424)">
<title>dependencies</title>
<polygon fill="white" stroke="transparent" points="-4,4 -4,-424 836,-424 836,4 -4,4"/>
<text text-anchor="start" x="395.01" y="-42.4" font-family="Times-12" font-weight="bold" font-size="14.00">Legend</text>
<polygon fill="#ffffb3" stroke="transparent" points="182,-10 182,-30 202,-30 202,-10 182,-10"/>
<text text-anchor="start" x="205.63" y="-15.4" font-family="Times-12" font-size="14.00"> &#160;Declarations</text>
<polygon fill="#8dd3c7" stroke="transparent" points="295,-10 295,-30 315,-30 315,-10 295,-10"/>
<text text-anchor="start" x="318.73" y="-15.4" font-family="Times-12" font-size="14.00"> &#160;Module</text>
<polygon fill="#80b1d3" stroke="transparent" points="381,-10 381,-30 401,-30 401,-10 381,-10"/>
<text text-anchor="start" x="404.78" y="-15.4" font-family="Times-12" font-size="14.00"> &#160;Bootstrap</text>
<polygon fill="#fdb462" stroke="transparent" points="478,-10 478,-30 498,-30 498,-10 478,-10"/>
<text text-anchor="start" x="501.67" y="-15.4" font-family="Times-12" font-size="14.00"> &#160;Providers</text>
<polygon fill="#fb8072" stroke="transparent" points="574,-10 574,-30 594,-30 594,-10 574,-10"/>
<text text-anchor="start" x="597.73" y="-15.4" font-family="Times-12" font-size="14.00"> &#160;Exports</text>
<g id="clust1" class="cluster">
<title>cluster_AppModule</title>
<polygon fill="none" stroke="black" stroke-dasharray="1,5" points="212,-146 212,-412 490,-412 490,-146 212,-146"/>
</g>
<g id="clust3" class="cluster">
<title>cluster_AppModule_imports</title>
<polygon fill="none" stroke="black" points="220,-154 220,-347 482,-347 482,-154 220,-154"/>
</g>
<g id="clust7" class="cluster">
<title>cluster_CarouselsModule</title>
<polygon fill="none" stroke="black" stroke-dasharray="1,5" points="191,-70 191,-138 379,-138 379,-70 191,-70"/>
</g>
<g id="clust12" class="cluster">
<title>cluster_CarouselsModule_providers</title>
<polygon fill="none" stroke="black" points="199,-78 199,-130 371,-130 371,-78 199,-78"/>
</g>
<g id="clust13" class="cluster">
<title>cluster_SharepointModule</title>
<polygon fill="none" stroke="black" stroke-dasharray="1,5" points="8,-211 8,-279 204,-279 204,-211 8,-211"/>
</g>
<g id="clust18" class="cluster">
<title>cluster_SharepointModule_providers</title>
<polygon fill="none" stroke="black" points="16,-219 16,-271 196,-271 196,-219 16,-219"/>
</g>
<g id="clust19" class="cluster">
<title>cluster_TelegramModule</title>
<polygon fill="none" stroke="black" stroke-dasharray="1,5" points="498,-211 498,-279 824,-279 824,-211 498,-211"/>
</g>
<g id="clust22" class="cluster">
<title>cluster_TelegramModule_exports</title>
<polygon fill="none" stroke="black" points="684,-219 684,-271 816,-271 816,-219 684,-219"/>
</g>
<g id="clust24" class="cluster">
<title>cluster_TelegramModule_providers</title>
<polygon fill="none" stroke="black" points="506,-219 506,-271 676,-271 676,-219 506,-219"/>
</g>
<g id="clust25" class="cluster">
<title>cluster_UploadModule</title>
<polygon fill="none" stroke="black" stroke-dasharray="1,5" points="498,-287 498,-355 792,-355 792,-287 498,-287"/>
</g>
<g id="clust28" class="cluster">
<title>cluster_UploadModule_exports</title>
<polygon fill="none" stroke="black" points="666,-295 666,-347 784,-347 784,-295 666,-295"/>
</g>
<g id="clust30" class="cluster">
<title>cluster_UploadModule_providers</title>
<polygon fill="none" stroke="black" points="506,-295 506,-347 658,-347 658,-295 506,-295"/>
</g>
<!-- CarouselsModule -->
<g id="node1" class="node">
<title>CarouselsModule</title>
<polygon fill="#8dd3c7" stroke="black" points="342.26,-198 339.26,-202 318.26,-202 315.26,-198 227.74,-198 227.74,-162 342.26,-162 342.26,-198"/>
<text text-anchor="middle" x="285" y="-175.8" font-family="Times,serif" font-size="14.00">CarouselsModule</text>
</g>
<!-- AppModule -->
<g id="node5" class="node">
<title>AppModule</title>
<polygon fill="#8dd3c7" stroke="black" points="459.66,-404 456.66,-408 435.66,-408 432.66,-404 376.34,-404 376.34,-368 459.66,-368 459.66,-404"/>
<text text-anchor="middle" x="418" y="-381.8" font-family="Times,serif" font-size="14.00">AppModule</text>
</g>
<!-- CarouselsModule&#45;&gt;AppModule -->
<g id="edge1" class="edge">
<title>CarouselsModule&#45;&gt;AppModule</title>
<path fill="none" stroke="black" d="M248.26,-198.28C248.26,-248.7 248.26,-386 248.26,-386 248.26,-386 366.04,-386 366.04,-386"/>
<polygon fill="black" stroke="black" points="366.04,-389.5 376.04,-386 366.04,-382.5 366.04,-389.5"/>
</g>
<!-- SharepointModule -->
<g id="node2" class="node">
<title>SharepointModule</title>
<polygon fill="#8dd3c7" stroke="black" points="389.2,-339 386.2,-343 365.2,-343 362.2,-339 268.8,-339 268.8,-303 389.2,-303 389.2,-339"/>
<text text-anchor="middle" x="329" y="-316.8" font-family="Times,serif" font-size="14.00">SharepointModule</text>
</g>
<!-- SharepointModule&#45;&gt;AppModule -->
<g id="edge2" class="edge">
<title>SharepointModule&#45;&gt;AppModule</title>
<path fill="none" stroke="black" d="M382.64,-339.11C382.64,-339.11 382.64,-357.99 382.64,-357.99"/>
<polygon fill="black" stroke="black" points="379.14,-357.99 382.64,-367.99 386.14,-357.99 379.14,-357.99"/>
</g>
<!-- TelegramModule -->
<g id="node3" class="node">
<title>TelegramModule</title>
<polygon fill="#8dd3c7" stroke="black" points="473.69,-198 470.69,-202 449.69,-202 446.69,-198 360.31,-198 360.31,-162 473.69,-162 473.69,-198"/>
<text text-anchor="middle" x="417" y="-175.8" font-family="Times,serif" font-size="14.00">TelegramModule</text>
</g>
<!-- UploadModule -->
<g id="node4" class="node">
<title>UploadModule</title>
<polygon fill="#8dd3c7" stroke="black" points="409.26,-263 406.26,-267 385.26,-267 382.26,-263 308.74,-263 308.74,-227 409.26,-227 409.26,-263"/>
<text text-anchor="middle" x="359" y="-240.8" font-family="Times,serif" font-size="14.00">UploadModule</text>
</g>
<!-- TelegramModule&#45;&gt;UploadModule -->
<g id="edge10" class="edge">
<title>TelegramModule&#45;&gt;UploadModule</title>
<path fill="none" stroke="black" d="M384.89,-198.11C384.89,-198.11 384.89,-216.99 384.89,-216.99"/>
<polygon fill="black" stroke="black" points="381.39,-216.99 384.89,-226.99 388.39,-216.99 381.39,-216.99"/>
</g>
<!-- TelegramModule&#45;&gt;AppModule -->
<g id="edge3" class="edge">
<title>TelegramModule&#45;&gt;AppModule</title>
<path fill="none" stroke="black" d="M434.6,-198.28C434.6,-198.28 434.6,-357.76 434.6,-357.76"/>
<polygon fill="black" stroke="black" points="431.1,-357.76 434.6,-367.76 438.1,-357.76 431.1,-357.76"/>
</g>
<!-- TelegramService  -->
<g id="node8" class="node">
<title>TelegramService </title>
<polygon fill="#fb8072" stroke="black" points="807.62,-263 692.38,-263 692.38,-227 807.62,-227 807.62,-263"/>
<text text-anchor="middle" x="750" y="-240.8" font-family="Times,serif" font-size="14.00">TelegramService </text>
</g>
<!-- TelegramModule&#45;&gt;TelegramService  -->
<g id="edge8" class="edge">
<title>TelegramModule&#45;&gt;TelegramService </title>
<path fill="none" stroke="black" stroke-dasharray="5,2" d="M473.87,-180C568.98,-180 750,-180 750,-180 750,-180 750,-216.89 750,-216.89"/>
<polygon fill="black" stroke="black" points="746.5,-216.89 750,-226.89 753.5,-216.89 746.5,-216.89"/>
</g>
<!-- UploadModule&#45;&gt;SharepointModule -->
<g id="edge6" class="edge">
<title>UploadModule&#45;&gt;SharepointModule</title>
<path fill="none" stroke="black" d="M348.86,-263.01C348.86,-263.01 348.86,-292.85 348.86,-292.85"/>
<polygon fill="black" stroke="black" points="345.36,-292.85 348.86,-302.85 352.36,-292.85 345.36,-292.85"/>
</g>
<!-- UploadModule&#45;&gt;AppModule -->
<g id="edge4" class="edge">
<title>UploadModule&#45;&gt;AppModule</title>
<path fill="none" stroke="black" d="M399.24,-263.14C399.24,-263.14 399.24,-357.93 399.24,-357.93"/>
<polygon fill="black" stroke="black" points="395.74,-357.92 399.24,-367.93 402.74,-357.93 395.74,-357.92"/>
</g>
<!-- UploadService  -->
<g id="node10" class="node">
<title>UploadService </title>
<polygon fill="#fb8072" stroke="black" points="776.19,-339 673.81,-339 673.81,-303 776.19,-303 776.19,-339"/>
<text text-anchor="middle" x="725" y="-316.8" font-family="Times,serif" font-size="14.00">UploadService </text>
</g>
<!-- UploadModule&#45;&gt;UploadService  -->
<g id="edge11" class="edge">
<title>UploadModule&#45;&gt;UploadService </title>
<path fill="none" stroke="black" stroke-dasharray="5,2" d="M394.17,-263.11C394.17,-272.9 394.17,-283 394.17,-283 394.17,-283 683.05,-283 683.05,-283 683.05,-283 683.05,-292.89 683.05,-292.89"/>
<polygon fill="black" stroke="black" points="679.55,-292.89 683.05,-302.89 686.55,-292.89 679.55,-292.89"/>
</g>
<!-- CarouselsService -->
<g id="node6" class="node">
<title>CarouselsService</title>
<ellipse fill="#fdb462" stroke="black" cx="285" cy="-104" rx="78.14" ry="18"/>
<text text-anchor="middle" x="285" y="-99.8" font-family="Times,serif" font-size="14.00">CarouselsService</text>
</g>
<!-- CarouselsService&#45;&gt;CarouselsModule -->
<g id="edge5" class="edge">
<title>CarouselsService&#45;&gt;CarouselsModule</title>
<path fill="none" stroke="black" d="M285,-122.01C285,-122.01 285,-151.85 285,-151.85"/>
<polygon fill="black" stroke="black" points="281.5,-151.85 285,-161.85 288.5,-151.85 281.5,-151.85"/>
</g>
<!-- SharepointService -->
<g id="node7" class="node">
<title>SharepointService</title>
<ellipse fill="#fdb462" stroke="black" cx="106" cy="-245" rx="81.66" ry="18"/>
<text text-anchor="middle" x="106" y="-240.8" font-family="Times,serif" font-size="14.00">SharepointService</text>
</g>
<!-- SharepointService&#45;&gt;SharepointModule -->
<g id="edge7" class="edge">
<title>SharepointService&#45;&gt;SharepointModule</title>
<path fill="none" stroke="black" d="M188.02,-245C236.61,-245 288.76,-245 288.76,-245 288.76,-245 288.76,-292.99 288.76,-292.99"/>
<polygon fill="black" stroke="black" points="285.26,-292.99 288.76,-302.99 292.26,-292.99 285.26,-292.99"/>
</g>
<!-- TelegramService -->
<g id="node9" class="node">
<title>TelegramService</title>
<ellipse fill="#fdb462" stroke="black" cx="591" cy="-245" rx="76.98" ry="18"/>
<text text-anchor="middle" x="591" y="-240.8" font-family="Times,serif" font-size="14.00">TelegramService</text>
</g>
<!-- TelegramService&#45;&gt;TelegramModule -->
<g id="edge9" class="edge">
<title>TelegramService&#45;&gt;TelegramModule</title>
<path fill="none" stroke="black" d="M513.7,-245C488.42,-245 466.71,-245 466.71,-245 466.71,-245 466.71,-208.11 466.71,-208.11"/>
<polygon fill="black" stroke="black" points="470.21,-208.11 466.71,-198.11 463.21,-208.11 470.21,-208.11"/>
</g>
<!-- UploadService -->
<g id="node11" class="node">
<title>UploadService</title>
<ellipse fill="#fdb462" stroke="black" cx="582" cy="-321" rx="68.34" ry="18"/>
<text text-anchor="middle" x="582" y="-316.8" font-family="Times,serif" font-size="14.00">UploadService</text>
</g>
<!-- UploadService&#45;&gt;UploadModule -->
<g id="edge12" class="edge">
<title>UploadService&#45;&gt;UploadModule</title>
<path fill="none" stroke="black" d="M513.55,-321C463.5,-321 404.31,-321 404.31,-321 404.31,-321 404.31,-273.01 404.31,-273.01"/>
<polygon fill="black" stroke="black" points="407.81,-273.01 404.31,-263.01 400.81,-273.01 407.81,-273.01"/>
</g>
</g>
</svg>
