<?xml version="1.0" encoding="UTF-8" standalone="no"?>
<!DOCTYPE svg PUBLIC "-//W3C//DTD SVG 1.1//EN"
 "http://www.w3.org/Graphics/SVG/1.1/DTD/svg11.dtd">
<!-- Generated by graphviz version 2.47.0 (20210316.0004)
 -->
<!-- Title: dependencies Pages: 1 -->
<svg width="558pt" height="211pt"
 viewBox="0.00 0.00 558.00 211.00" xmlns="http://www.w3.org/2000/svg" xmlns:xlink="http://www.w3.org/1999/xlink">
<g id="graph0" class="graph" transform="scale(1 1) rotate(0) translate(4 207)">
<title>dependencies</title>
<polygon fill="white" stroke="transparent" points="-4,4 -4,-207 554,-207 554,4 -4,4"/>
<text text-anchor="start" x="254.01" y="-42.4" font-family="Times-12" font-weight="bold" font-size="14.00">Legend</text>
<polygon fill="#ffffb3" stroke="transparent" points="41,-10 41,-30 61,-30 61,-10 41,-10"/>
<text text-anchor="start" x="64.63" y="-15.4" font-family="Times-12" font-size="14.00"> &#160;Declarations</text>
<polygon fill="#8dd3c7" stroke="transparent" points="154,-10 154,-30 174,-30 174,-10 154,-10"/>
<text text-anchor="start" x="177.73" y="-15.4" font-family="Times-12" font-size="14.00"> &#160;Module</text>
<polygon fill="#80b1d3" stroke="transparent" points="240,-10 240,-30 260,-30 260,-10 240,-10"/>
<text text-anchor="start" x="263.78" y="-15.4" font-family="Times-12" font-size="14.00"> &#160;Bootstrap</text>
<polygon fill="#fdb462" stroke="transparent" points="337,-10 337,-30 357,-30 357,-10 337,-10"/>
<text text-anchor="start" x="360.67" y="-15.4" font-family="Times-12" font-size="14.00"> &#160;Providers</text>
<polygon fill="#fb8072" stroke="transparent" points="433,-10 433,-30 453,-30 453,-10 433,-10"/>
<text text-anchor="start" x="456.73" y="-15.4" font-family="Times-12" font-size="14.00"> &#160;Exports</text>
<g id="clust1" class="cluster">
<title>cluster_AppModule</title>
<polygon fill="none" stroke="black" stroke-dasharray="1,5" points="8,-70 8,-195 542,-195 542,-70 8,-70"/>
</g>
<g id="clust3" class="cluster">
<title>cluster_AppModule_imports</title>
<polygon fill="none" stroke="black" points="16,-78 16,-130 534,-130 534,-78 16,-78"/>
</g>
<!-- CarouselsModule -->
<g id="node1" class="node">
<title>CarouselsModule</title>
<polygon fill="#8dd3c7" stroke="black" points="526.26,-122 523.26,-126 502.26,-126 499.26,-122 411.74,-122 411.74,-86 526.26,-86 526.26,-122"/>
<text text-anchor="middle" x="469" y="-99.8" font-family="Times,serif" font-size="14.00">CarouselsModule</text>
</g>
<!-- AppModule -->
<g id="node5" class="node">
<title>AppModule</title>
<polygon fill="#8dd3c7" stroke="black" points="307.66,-187 304.66,-191 283.66,-191 280.66,-187 224.34,-187 224.34,-151 307.66,-151 307.66,-187"/>
<text text-anchor="middle" x="266" y="-164.8" font-family="Times,serif" font-size="14.00">AppModule</text>
</g>
<!-- CarouselsModule&#45;&gt;AppModule -->
<g id="edge1" class="edge">
<title>CarouselsModule&#45;&gt;AppModule</title>
<path fill="none" stroke="black" d="M469,-122.11C469,-141.34 469,-169 469,-169 469,-169 318.06,-169 318.06,-169"/>
<polygon fill="black" stroke="black" points="318.06,-165.5 308.06,-169 318.06,-172.5 318.06,-165.5"/>
</g>
<!-- SharepointModule -->
<g id="node2" class="node">
<title>SharepointModule</title>
<polygon fill="#8dd3c7" stroke="black" points="394.2,-122 391.2,-126 370.2,-126 367.2,-122 273.8,-122 273.8,-86 394.2,-86 394.2,-122"/>
<text text-anchor="middle" x="334" y="-99.8" font-family="Times,serif" font-size="14.00">SharepointModule</text>
</g>
<!-- SharepointModule&#45;&gt;AppModule -->
<g id="edge2" class="edge">
<title>SharepointModule&#45;&gt;AppModule</title>
<path fill="none" stroke="black" d="M290.86,-122.11C290.86,-122.11 290.86,-140.99 290.86,-140.99"/>
<polygon fill="black" stroke="black" points="287.36,-140.99 290.86,-150.99 294.36,-140.99 287.36,-140.99"/>
</g>
<!-- TelegramModule -->
<g id="node3" class="node">
<title>TelegramModule</title>
<polygon fill="#8dd3c7" stroke="black" points="255.69,-122 252.69,-126 231.69,-126 228.69,-122 142.31,-122 142.31,-86 255.69,-86 255.69,-122"/>
<text text-anchor="middle" x="199" y="-99.8" font-family="Times,serif" font-size="14.00">TelegramModule</text>
</g>
<!-- TelegramModule&#45;&gt;AppModule -->
<g id="edge3" class="edge">
<title>TelegramModule&#45;&gt;AppModule</title>
<path fill="none" stroke="black" d="M239.88,-122.11C239.88,-122.11 239.88,-140.99 239.88,-140.99"/>
<polygon fill="black" stroke="black" points="236.38,-140.99 239.88,-150.99 243.38,-140.99 236.38,-140.99"/>
</g>
<!-- UploadModule -->
<g id="node4" class="node">
<title>UploadModule</title>
<polygon fill="#8dd3c7" stroke="black" points="124.26,-122 121.26,-126 100.26,-126 97.26,-122 23.74,-122 23.74,-86 124.26,-86 124.26,-122"/>
<text text-anchor="middle" x="74" y="-99.8" font-family="Times,serif" font-size="14.00">UploadModule</text>
</g>
<!-- UploadModule&#45;&gt;AppModule -->
<g id="edge4" class="edge">
<title>UploadModule&#45;&gt;AppModule</title>
<path fill="none" stroke="black" d="M74,-122.11C74,-141.34 74,-169 74,-169 74,-169 214.34,-169 214.34,-169"/>
<polygon fill="black" stroke="black" points="214.34,-172.5 224.34,-169 214.34,-165.5 214.34,-172.5"/>
</g>
</g>
</svg>
